<svg xmlns="http://www.w3.org/2000/svg" xmlns:xlink="http://www.w3.org/1999/xlink" viewBox="0 0 757.5 741.64"><defs><linearGradient id="linear-gradient" y1="453.09" x2="57.73" y2="453.09" gradientUnits="userSpaceOnUse"><stop offset="0" stop-color="#80eddb"/><stop offset="1" stop-color="#538498"/></linearGradient><linearGradient id="linear-gradient-2" x1="162.52" y1="284.67" x2="458.4" y2="284.67" xlink:href="#linear-gradient"/><linearGradient id="linear-gradient-3" x1="68.16" y1="574.29" x2="251.4" y2="574.29" xlink:href="#linear-gradient"/><linearGradient id="linear-gradient-4" x1="43.46" y1="306.41" x2="234.03" y2="306.41" xlink:href="#linear-gradient"/><linearGradient id="linear-gradient-5" x1="297.48" y1="448.38" x2="600.96" y2="448.38" xlink:href="#linear-gradient"/><linearGradient id="linear-gradient-6" x1="190.98" y1="132.27" x2="482.55" y2="132.27" xlink:href="#linear-gradient"/><linearGradient id="linear-gradient-7" x1="505.58" y1="166.82" x2="691.42" y2="166.82" xlink:href="#linear-gradient"/><linearGradient id="linear-gradient-8" x1="522.24" y1="427.37" x2="713.02" y2="427.37" xlink:href="#linear-gradient"/><linearGradient id="linear-gradient-9" x1="273.44" y1="602" x2="573.05" y2="602" xlink:href="#linear-gradient"/><linearGradient id="linear-gradient-10" x1="107.8" y1="102.49" x2="165.53" y2="102.49" xlink:href="#linear-gradient"/><linearGradient id="linear-gradient-11" x1="460.57" y1="28.87" x2="518.31" y2="28.87" xlink:href="#linear-gradient"/><linearGradient id="linear-gradient-12" x1="699.76" y1="288.55" x2="757.5" y2="288.55" xlink:href="#linear-gradient"/><linearGradient id="linear-gradient-13" x1="598.56" y1="635.3" x2="656.29" y2="635.3" xlink:href="#linear-gradient"/><linearGradient id="linear-gradient-14" x1="239.19" y1="712.78" x2="296.92" y2="712.78" xlink:href="#linear-gradient"/></defs><g id="Graphic_Elements" data-name="Graphic Elements"><path d="M50.1,433.54a28.87,28.87,0,1,1-40.79-1.68A28.79,28.79,0,0,1,50.1,433.54Z" style="fill:url(#linear-gradient)"/><path d="M454.86,251.23c-.07.74-.17,1.49-.2,2.23a42.1,42.1,0,0,0,3.74,19.1l-89.32,82.26-89.32,82.27a42,42,0,0,0-21-5.27L162.52,151a53.77,53.77,0,0,0,20.38-18.77Z" style="fill:url(#linear-gradient-2)"/><path d="M81.07,470.42l137.4,12.65a41.64,41.64,0,0,0,28.82,30.75l2.86,109.94,1.25,47.74a44.13,44.13,0,0,0-11.32,6.66L68.16,491.51A54.46,54.46,0,0,0,81.07,470.42Z" style="fill:url(#linear-gradient-3)"/><path d="M134.4,157.47c.9,0,1.78,0,2.67,0l97,282.8c-1.07.81-2.11,1.67-3.12,2.59A41.9,41.9,0,0,0,220.85,457L83.2,444.35a54.94,54.94,0,0,0-39.74-44.27L123.1,155.81A55.82,55.82,0,0,0,134.4,157.47Z" style="opacity:0.5;fill:url(#linear-gradient-4)"/><path d="M301,478.16a41.92,41.92,0,0,0-3.49-21.83L476.12,291.79a42.09,42.09,0,0,0,21.47,5.27L601,587.11A53.62,53.62,0,0,0,581.57,605Z" style="fill:url(#linear-gradient-5)"/><path d="M449,66.14a54.55,54.55,0,0,0,30.48,16.78l.11,4.72,3,128a41.92,41.92,0,0,0-14.42,8.68c-1,.93-1.94,1.9-2.84,2.9l-93.23-40.79-180.66-79c.08-.89.2-1.76.24-2.66a55.6,55.6,0,0,0-.66-11L435.06,37.29A54.6,54.6,0,0,0,449,66.14Z" style="fill:url(#linear-gradient-6)"/><path d="M691.35,248.08a54.94,54.94,0,0,0-12.12,16.29L537.63,247A41.53,41.53,0,0,0,508.7,215.1L505.62,83.2l0-1.77a54.89,54.89,0,0,0,21.14-12.09s0,0,0-.06L691.42,248Z" style="opacity:0.5;fill:url(#linear-gradient-7)"/><path d="M629.68,580.32c-1.13,0-2.25,0-3.37,0l-104.07-292c.92-.73,1.84-1.46,2.72-2.27a41.71,41.71,0,0,0,9.53-13l139.19,17A54.75,54.75,0,0,0,713,341.26L640,581.74A55.68,55.68,0,0,0,629.68,580.32Z" style="fill:url(#linear-gradient-8)"/><path d="M300.83,682.59a44.21,44.21,0,0,0-23.33-13.31l-4.06-156.09a41.75,41.75,0,0,0,14.3-8.65c.88-.81,1.69-1.67,2.49-2.53L572.75,629.68c-.11,1.12-.26,2.23-.3,3.36a55.62,55.62,0,0,0,.6,10.74L311.29,702A44.31,44.31,0,0,0,300.83,682.59Z" style="opacity:0.5;fill:url(#linear-gradient-9)"/><path d="M165.5,103.68a28.86,28.86,0,1,1-7.61-20.74A28.8,28.8,0,0,1,165.5,103.68Z" style="opacity:0.5;fill:url(#linear-gradient-10)"/><path d="M509,50.1a28.87,28.87,0,1,1,9.28-20A28.87,28.87,0,0,1,509,50.1Z" style="fill:url(#linear-gradient-11)"/><path d="M707.4,308.11a28.86,28.86,0,1,1,40.79,1.67A28.8,28.8,0,0,1,707.4,308.11Z" style="opacity:0.5;fill:url(#linear-gradient-12)"/><path d="M598.58,634.11a28.86,28.86,0,1,1,7.61,20.75A28.72,28.72,0,0,1,598.58,634.11Z" style="fill:url(#linear-gradient-13)"/><path d="M248.5,691.55a28.86,28.86,0,1,1-9.28,20A28.86,28.86,0,0,1,248.5,691.55Z" style="opacity:0.5;fill:url(#linear-gradient-14)"/></g></svg>